<?xml version="1.0" encoding="UTF-8"?><svg id="Layer_1" xmlns="http://www.w3.org/2000/svg" viewBox="0 0 736.5491 218.4971"><defs><style>.cls-1{fill:#fff;}.cls-2{fill:#1c2f5b;}.cls-3{fill:#e51d39;}</style></defs><rect class="cls-1" x="12.9691" y="7.9987" width="717.291" height="210.4985"/><path class="cls-2" d="M134.4839,163.8643l-5.3927-17.4113h-40.0615l-5.3927,17.4113h-28.9676l40.3695-108.7821h28.3511l40.0615,108.7821h-28.9676ZM108.7522,80.968l-13.4051,45.9166h27.5808l-14.1757-45.9166Z"/><path class="cls-2" d="M219.3222,163.8643h-27.7347l-37.288-108.7821h28.9676l22.4958,77.3495,22.342-77.3495h28.9676l-37.7503,108.7821Z"/><path class="cls-2" d="M332.0499,87.4395c-7.8583-8.1662-16.7952-13.5592-28.5053-13.5592-11.0939,0-16.1787,6.4715-16.1787,11.5563,0,5.855,4.6224,8.6286,13.8675,10.0154l12.0183,1.6947c28.3511,4.0062,40.0612,12.6348,40.0612,31.2788,0,22.9581-18.3357,37.9038-49.4601,37.9038-25.4238,0-38.5206-9.0907-49.6146-22.0334l20.6469-13.0972c7.2418,8.7827,19.7225,13.7134,31.4329,13.7134,8.0121,0,20.0305-3.5439,20.0305-12.6345,0-7.7042-9.2448-9.8613-18.9519-11.0939l-12.4807-1.695c-19.1064-2.6194-34.6685-11.5563-34.6685-30.6623,0-21.4175,15.8704-36.3636,43.9133-36.3636,22.9584,0,37.288,10.4777,47.9199,20.6473l-20.0308,14.3295Z"/><path class="cls-2" d="M416.3485,51.6925c39.5992,0,55.1611,32.6653,55.1611,58.5514,0,29.1214-19.8766,56.8561-54.8528,56.8561-35.9015,0-54.0831-28.197-54.0831-58.089,0-24.807,14.484-57.3184,53.7749-57.3184ZM416.8109,143.9877c20.1843,0,27.4261-18.7981,27.4261-34.0521,0-19.7225-8.6283-35.4392-27.8885-35.4392-20.6473,0-26.9644,19.5687-26.9644,34.2065,0,17.4113,7.8583,35.2847,27.4267,35.2847Z"/><path class="cls-2" d="M540.7402,55.0822c25.7314,0,39.2909,12.1725,39.2909,37.1339,0,27.5808-24.1908,36.0553-43.9133,36.0553h-22.0337v35.593h-27.2726V55.0822h53.9287ZM514.0841,108.0865h17.8731c12.3272,0,20.9555-2.9274,20.9555-17.1031,0-15.7163-12.9431-15.8704-21.4172-15.8704h-17.4113v32.9735Z"/><path class="cls-2" d="M660.6166,87.4395c-7.8583-8.1662-16.7948-13.5592-28.5056-13.5592-11.0936,0-16.1784,6.4715-16.1784,11.5563,0,5.855,4.6224,8.6286,13.8672,10.0154l12.019,1.6947c28.3508,4.0062,40.0609,12.6348,40.0609,31.2788,0,22.9581-18.3354,37.9038-49.4604,37.9038-25.4231,0-38.5203-9.0907-49.6146-22.0334l20.6473-13.0972c7.2418,8.7827,19.7225,13.7134,31.4326,13.7134,8.0124,0,20.0308-3.5439,20.0308-12.6345,0-7.7042-9.2448-9.8613-18.9519-11.0939l-12.4807-1.695c-19.106-2.6194-34.6685-11.5563-34.6685-30.6623,0-21.4175,15.8707-36.3636,43.9133-36.3636,22.9584,0,37.288,10.4777,47.9199,20.6473l-20.0308,14.3295Z"/><polygon class="cls-3" points="0 0 0 218.4971 168.3896 218.0795 159.7766 193.3428 24.737 193.7605 24.737 24.737 711.8121 24.737 711.8121 193.7605 214.1916 193.3428 223.0423 218.0795 736.5491 218.4971 736.5491 0 0 0"/></svg>